<?xml version="1.0" encoding="utf-8"?>
<svg width="51" height="81" version="1.1" desc="Created with imagetracer.js version 1.2.6" xmlns="http://www.w3.org/2000/svg">
  <path stroke="rgb(0,0,0)" stroke-width="1" opacity="0" d="M 0 0 L 51 0 L 51 81 L 0 81 L 0 0 Z M 28 11 Q 22 16 20 25 Q 19 29 24 27 L 22 37 Q 21 47 25 53 L 28 46 Q 30 40 27 39 Q 26 33 28 32 L 27 28 L 32 30 L 33 30 L 31 26 Q 32 17 29 13 Q 30 10 28 11 Z M 12 24 L 9 29 L 10 30 L 10 40 L 12 50 L 20 67 Q 25 73 34 76 L 36 75 Q 23 58 14 39 L 19 40 Q 18 30 12 24 Z M 38 29 L 38 32 L 32 43 L 35 45 L 27 55 Q 26 59 30 59 L 34 57 L 38 45 L 43 46 Q 41 43 42 35 L 40 31 Q 41 28 38 29 Z M 17 68 L 14 72 L 21 74 L 22 74 L 20 71 L 17 68 Z " style="fill-rule: nonzero; paint-order: fill;"/>
  <path fill="rgb(139,139,140)" stroke="rgb(139,139,140)" stroke-width="1" opacity="1" d="M 27.5 11 L 26.5 13 L 27.5 11 Z "/>
  <path stroke="rgb(139,139,140)" stroke-width="1" opacity="1" d="M 30.5 18 L 31 20.5 L 30 20.5 L 30.5 18 Z " style=""/>
  <path fill="rgb(139,139,140)" stroke="rgb(139,139,140)" stroke-width="1" opacity="1" d="M 11.5 24 L 14.5 28 L 11.5 24 Z "/>
  <path stroke="rgb(139,139,140)" stroke-width="1" opacity="1" d="M 22.5 36 L 23 38.5 L 22 38.5 L 22.5 36 Z " style=""/>
  <path fill="rgb(139,139,140)" stroke="rgb(139,139,140)" stroke-width="1" opacity="1" d="M 27.5 39 L 28 45.5 L 27 45.5 L 27.5 39 Z "/>
  <path fill="rgb(139,139,140)" stroke="rgb(139,139,140)" stroke-width="1" opacity="1" d="M 32.5 42 L 33.5 44 L 32.5 42 Z "/>
  <path stroke="rgb(139,139,140)" stroke-width="1" opacity="1" d="M 22.5 43 L 23 46.5 L 22 46.5 L 22.5 43 Z " style=""/>
  <path fill="rgb(139,139,140)" stroke="rgb(139,139,140)" stroke-width="1" opacity="1" d="M 13.5 52 L 14.5 54 L 13.5 52 Z "/>
  <path fill="rgb(139,139,140)" stroke="rgb(139,139,140)" stroke-width="1" opacity="1" d="M 15.5 57 L 16.5 59 L 15.5 57 Z "/>
  <path fill="rgb(139,139,140)" stroke="rgb(139,139,140)" stroke-width="1" opacity="1" d="M 20.5 66 L 25.5 72 L 20.5 66 Z "/>
  <path fill="rgb(139,139,140)" stroke="rgb(139,139,140)" stroke-width="1" opacity="1" d="M 32.5 70 L 33.5 72 L 32.5 70 Z "/>
  <path fill="rgb(139,139,140)" stroke="rgb(139,139,140)" stroke-width="1" opacity="1" d="M 34.5 73 L 35.5 75 L 34.5 73 Z "/>
  <path stroke="rgb(69,69,71)" stroke-width="1" opacity="1" d="M 28.5 11 L 31 28 L 27 28.5 L 27 47.5 L 24.5 53 L 23 48.5 L 23 32.5 L 24 27 L 20 26.5 Q 21.8 16.3 28.5 11 Z " style=""/>
  <path stroke="rgb(69,69,71)" stroke-width="1" opacity="1" d="M 11.5 25 Q 17.6 29.7 18 39 Q 12.8 36.9 14 41.5 L 32 69.5 L 34 75 Q 26.5 73.3 22 67.5 L 17 60.5 L 17 57.5 L 12 47.5 L 10 30.5 L 11.5 25 Z " style=""/>
  <path stroke="rgb(69,69,71)" stroke-width="1" opacity="1" d="M 38 31 Q 40.7 29.9 40 32.5 Q 43.1 37.1 42 45 Q 38.2 44 37 46.5 L 35 54 Q 32.3 52.9 33 55.5 L 29.5 58 Q 24.8 55.7 29 53.5 L 35 43.5 Q 31.5 42 34 40.5 L 38 31 Z " style=""/>
  <path fill="rgb(69,69,71)" stroke="rgb(69,69,71)" stroke-width="1" opacity="1" d="M 16 68 Q 18.7 66.9 18 69.5 L 20 73 L 15 72 L 16 68 Z "/>
  <path fill="rgb(91,91,93)" stroke="rgb(91,91,93)" stroke-width="1" opacity="1" d="M 10.5 27 L 11 29.5 L 10 29.5 L 10.5 27 Z "/>
  <path fill="rgb(91,91,93)" stroke="rgb(91,91,93)" stroke-width="1" opacity="1" d="M 31.5 27 L 32 29 L 30 28.5 L 31.5 27 Z "/>
  <path fill="rgb(91,91,93)" stroke="rgb(91,91,93)" stroke-width="1" opacity="1" d="M 41.5 34 L 42 36.5 L 41 36.5 L 41.5 34 Z "/>
  <path fill="rgb(91,91,93)" stroke="rgb(91,91,93)" stroke-width="1" opacity="1" d="M 10.5 36 L 11 38.5 L 10 38.5 L 10.5 36 Z "/>
  <path stroke="rgb(91,91,93)" stroke-width="1" opacity="1" d="M 22.5 39 L 23 42.5 L 22 42.5 L 22.5 39 Z " style=""/>
  <path fill="rgb(91,91,93)" stroke="rgb(91,91,93)" stroke-width="1" opacity="1" d="M 33.5 42 L 34.5 44 L 33.5 42 Z "/>
  <path stroke="rgb(91,91,93)" stroke-width="1" opacity="1" d="M 36.5 49 L 36 50.5 L 35.5 52 L 35 50.5 L 36.5 49 Z " style=""/>
  <path fill="rgb(91,91,93)" stroke="rgb(91,91,93)" stroke-width="1" opacity="1" d="M 13.5 51 L 14.5 53 L 13.5 51 Z "/>
  <path fill="rgb(91,91,93)" stroke="rgb(91,91,93)" stroke-width="1" opacity="1" d="M 28.5 53 L 27.5 55 L 28.5 53 Z "/>
  <path fill="rgb(91,91,93)" stroke="rgb(91,91,93)" stroke-width="1" opacity="1" d="M 15.5 56 L 16.5 58 L 15.5 56 Z "/>
  <path fill="rgb(91,91,93)" stroke="rgb(91,91,93)" stroke-width="1" opacity="1" d="M 32.5 56 L 31.5 58 L 32.5 56 Z "/>
  <path fill="rgb(91,91,93)" stroke="rgb(91,91,93)" stroke-width="1" opacity="1" d="M 28.5 57 L 29.5 59 L 28.5 57 Z "/>
  <path fill="rgb(91,91,93)" stroke="rgb(91,91,93)" stroke-width="1" opacity="1" d="M 19.5 64 L 21.5 67 L 19.5 64 Z "/>
  <path fill="rgb(91,91,93)" stroke="rgb(91,91,93)" stroke-width="1" opacity="1" d="M 26.5 71 L 27.5 73 L 26.5 71 Z "/>
</svg>