<?xml version="1.0" encoding="utf-8"?>
<svg width="45" height="61" version="1.1" desc="Created with imagetracer.js version 1.2.6" xmlns="http://www.w3.org/2000/svg">
  <path fill="rgb(131,132,133)" stroke-width="1" opacity="0.8352941176470589" d="M 40.5 19 L 42.5 22 L 40.5 19 Z " style="stroke: rgb(0, 0, 0);"/>
  <path fill="rgb(131,132,133)" stroke-width="1" opacity="0.8352941176470589" d="M 42.5 23 L 43 25.5 L 42 25.5 L 42.5 23 Z " style="stroke: rgb(0, 0, 0);"/>
  <path fill="rgb(131,132,133)" stroke-width="1" opacity="0.8352941176470589" d="M 8.5 26 L 7.5 28 L 8.5 26 Z " style="stroke: rgb(0, 0, 0);"/>
  <path fill="rgb(131,132,133)" stroke-width="1" opacity="0.8352941176470589" d="M 29.5 27 L 32.5 31 L 29.5 27 Z " style="stroke: rgb(0, 0, 0);"/>
  <path fill="rgb(131,132,133)" stroke-width="1" opacity="0.8352941176470589" d="M 39.5 33 L 38.5 35 L 39.5 33 Z " style="stroke: rgb(0, 0, 0);"/>
  <path fill="rgb(131,132,133)" stroke-width="1" opacity="0.8352941176470589" d="M 15.5 54 L 16.5 56 L 15.5 54 Z " style="stroke: rgb(0, 0, 0);"/>
  <path fill="rgb(65,65,66)" stroke-width="1" opacity="0.9921568627450981" d="M 26.5 30 L 28.5 33 L 26.5 30 Z " style="stroke: rgb(0, 0, 0);"/>
  <path fill="rgb(65,65,66)" stroke-width="1" opacity="0.9921568627450981" d="M 1.5 49 L 3 52.5 L 2 52.5 L 1.5 49 Z " style="stroke: rgb(0, 0, 0);"/>
  <path fill="rgb(65,65,66)" stroke-width="1" opacity="0.9921568627450981" d="M 11.5 52 L 14 52.5 L 11.5 53 L 11.5 52 Z " style="stroke: rgb(0, 0, 0);"/>
  <path fill="rgb(65,65,66)" stroke-width="1" opacity="0.9921568627450981" d="M 15.5 53 L 16.5 55 L 15.5 53 Z " style="stroke: rgb(0, 0, 0);"/>
  <path fill="rgb(65,65,66)" stroke-width="1" opacity="0.9921568627450981" d="M 19.5 59 L 23 59.5 L 19.5 60 L 19.5 59 Z " style="stroke: rgb(0, 0, 0);"/>
  <g>
    <path stroke-width="1" opacity="1" d="M 30.423 2.153 L 35.923 4.653 L 38.923 17.653 L 42.923 22.653 L 40.923 31.653 L 37.423 35.153 L 34.423 36.153 C 34.09 31.82 32.423 28.82 29.423 27.153 C 26.223 24.02 20.89 23.02 13.423 24.153 L 7.423 27.153 L 6.923 17.653 L 8.423 18.153 L 10.923 16.653 L 12.423 10.153 L 16.923 12.153 L 22.423 5.153 L 30.423 2.153 Z" style="paint-order: fill markers; stroke: rgb(0, 0, 0);"/>
  </g>
  <path stroke-width="1" opacity="1" d="M 11 28 Q 24.5 25.7 29 33.5 L 31 41.5 L 35 45.5 L 35 48.5 L 28.5 57 L 18.5 60 L 15.5 53 L 8.5 52 L 3.5 54 L 0 44.5 L 0 38.5 L 11 30.5 L 11 28 Z " style="stroke: rgb(0, 0, 0);"/>
</svg>