<?xml version="1.0" encoding="utf-8"?>
<svg width="48" height="64" version="1.1" desc="Created with imagetracer.js version 1.2.6" xmlns="http://www.w3.org/2000/svg">
  <path fill="rgb(0,0,0)" stroke="rgb(0,0,0)" stroke-width="1" opacity="0" d="M 0 0 L 15.5 0 L 17 1.5 L 7 8.5 L 2 18.5 Q 3.5 25 8.5 28 Q 11.9 31.7 18 31 L 17 33.5 L 17 57.5 L 23.5 60 L 31 58 L 32 51.5 L 28 39.5 L 28 33 L 20 32.5 L 31.5 32 L 41 26.5 L 42 14.5 L 38 8.5 L 38 6 Q 35.3 7.1 36 4.5 L 29 0.5 L 48 0 L 48 64 L 0 64 L 0 0 Z "/>
  <path fill="rgb(65,65,68)" stroke="rgb(65,65,68)" stroke-width="1" opacity="0.9803921568627451" d="M 36.5 9 L 37.5 11 L 36.5 9 Z "/>
  <path stroke="rgb(67,67,69)" stroke-width="1" opacity="0.996078431372549" d="M 20.5 2 L 27.5 2 L 36 7.5 L 36 9.5 L 40 14.5 L 40 21.5 L 30.5 30 L 18.5 30 L 10.5 27 L 6 22.5 L 5 15.5 L 13.5 6 L 20.5 2 Z " style=""/>
  <path stroke-width="1" opacity="0.996078431372549" d="M 18.5 34 L 24 35 Q 24.3 40.4 28 43.5 L 29 54.5 Q 28 58 22.5 57 L 19 49.5 L 18.5 34 Z " style="stroke: rgb(0, 0, 0);"/>
  <path fill="rgb(177,177,178)" stroke="rgb(177,177,178)" stroke-width="1" opacity="0.9294117647058824" d="M 22.5 0 Q 27 -1 28 1.5 L 26.5 1 Q 21.5 2 22.5 0 Z "/>
  <path fill="rgb(177,177,178)" stroke="rgb(177,177,178)" stroke-width="1" opacity="0.9294117647058824" d="M 7.5 24 L 8.5 26 L 7.5 24 Z "/>
  <path stroke-width="1" opacity="0.9294117647058824" d="M 22.5 34 L 27 34 L 27 40.5 L 27.5 42 L 23.5 35 L 22.5 34 Z " style="stroke: rgb(0, 0, 0);"/>
  <path fill="rgb(177,177,178)" stroke="rgb(177,177,178)" stroke-width="1" opacity="0.9294117647058824" d="M 18.5 46 L 19.5 56 L 21 55.5 L 19.5 58 Q 16 54.3 18.5 46 Z "/>
  <path fill="rgb(177,177,178)" stroke="rgb(177,177,178)" stroke-width="1" opacity="0.9294117647058824" d="M 30.5 51 L 31 55.5 Q 29 60 27 56.5 L 30.5 51 Z "/>
  <path fill="rgb(250,250,250)" stroke="rgb(250,250,250)" stroke-width="1" opacity="0.2901960784313726" d="M 16.5 0 L 22 0.5 L 9.5 10 L 7 10 L 4 15.5 Q 6.3 16.8 5 21.5 L 8.5 26 Q 15.1 30.9 26.5 31 Q 27.8 28.8 32.5 30 L 40 24.5 L 41 21.5 L 41 19.5 Q 39.9 8.6 32.5 4 L 27 0.5 L 28.5 0 L 36 4.5 Q 35.3 7.1 38 6 L 38 8.5 Q 43.8 12.2 42 23.5 L 39.5 28 L 31.5 32 L 20 32.5 L 28 33 L 28 39.5 L 31 46.5 L 32 54.5 L 31 54.5 Q 30.6 45.9 27 40.5 L 27 34 L 18.5 34 L 17.5 35 L 17 33.5 L 18 31 Q 8 31 4 23.5 L 2 18.5 Q 3.5 10.9 8.5 7 L 17 1.5 L 16.5 0 Z "/>
  <path fill="rgb(250,250,250)" stroke="rgb(250,250,250)" stroke-width="1" opacity="0.2901960784313726" d="M 17.5 36 L 18 55.5 L 19.5 58 L 20.5 56 L 22.5 59 L 27.5 57 L 28.5 58 L 31 56.5 Q 31.8 58.8 29.5 58 L 21.5 60 L 17 57.5 L 17.5 36 Z "/>
  <path fill="rgb(109,109,110)" stroke="rgb(109,109,110)" stroke-width="1" opacity="0.9764705882352941" d="M 20.5 1 L 27 1.5 L 19.5 3 L 20.5 1 Z "/>
  <path fill="rgb(109,109,110)" stroke="rgb(109,109,110)" stroke-width="1" opacity="0.9764705882352941" d="M 33.5 5 L 34.5 9 Q 30 7 33.5 5 Z "/>
  <path fill="rgb(109,109,110)" stroke="rgb(109,109,110)" stroke-width="1" opacity="0.9764705882352941" d="M 8.5 10 L 10 10.5 L 5 14.5 L 8.5 10 Z "/>
  <path stroke-width="1" opacity="0.9764705882352941" d="M 40.5 21 L 40 22.5 L 37.5 27 L 31.5 30 L 35.5 25 L 40.5 21 Z " style="stroke: rgb(0, 0, 0);"/>
  <path fill="rgb(109,109,110)" stroke="rgb(109,109,110)" stroke-width="1" opacity="0.9764705882352941" d="M 22.5 30 L 26 30.5 L 22.5 31 L 22.5 30 Z "/>
  <path fill="rgb(109,109,110)" stroke="rgb(109,109,110)" stroke-width="1" opacity="0.9764705882352941" d="M 19.5 34 L 22 34.5 L 19.5 35 L 19.5 34 Z "/>
  <path fill="rgb(109,109,110)" stroke="rgb(109,109,110)" stroke-width="1" opacity="0.9764705882352941" d="M 18.5 39 L 19 45.5 L 18 45.5 L 18.5 39 Z "/>
  <path fill="rgb(109,109,110)" stroke="rgb(109,109,110)" stroke-width="1" opacity="0.9764705882352941" d="M 28.5 45 L 30 52.5 L 29 52.5 L 28.5 45 Z "/>
  <path fill="rgb(109,109,110)" stroke="rgb(109,109,110)" stroke-width="1" opacity="0.9764705882352941" d="M 19.5 50 L 21 54.5 L 19 55.5 L 19.5 50 Z "/>
</svg>