<?xml version="1.0" standalone="no"?>
<!DOCTYPE svg PUBLIC "-//W3C//DTD SVG 20010904//EN"
 "http://www.w3.org/TR/2001/REC-SVG-20010904/DTD/svg10.dtd">
<svg version="1.0" xmlns="http://www.w3.org/2000/svg"
 width="56.000000pt" height="82.000000pt" viewBox="0 0 56.000000 82.000000"
 preserveAspectRatio="xMidYMid meet">

<g transform="translate(0.000000,82.000000) scale(0.100000,-0.100000)"
fill="#000000" stroke="none">
<path d="M99 682 c6 -11 11 -45 11 -75 0 -47 -3 -55 -21 -60 -19 -5 -20 -10
-13 -91 6 -83 6 -86 -14 -86 -33 0 -33 -14 0 -66 108 -167 229 -201 326 -89
43 49 47 73 28 171 -10 46 -14 89 -11 94 11 19 -5 30 -30 20 -20 -8 -27 -4
-50 26 -14 19 -31 48 -37 64 -11 32 -12 33 -43 21 -15 -6 -28 1 -60 35 -44 48
-106 74 -86 36z"/>
</g>
</svg>
