<?xml version="1.0" standalone="no"?>
<!DOCTYPE svg PUBLIC "-//W3C//DTD SVG 20010904//EN"
 "http://www.w3.org/TR/2001/REC-SVG-20010904/DTD/svg10.dtd">
<svg version="1.0" xmlns="http://www.w3.org/2000/svg"
 width="54.000000pt" height="72.000000pt" viewBox="0 0 54.000000 72.000000"
 preserveAspectRatio="xMidYMid meet">

<g transform="translate(0.000000,72.000000) scale(0.100000,-0.100000)"
fill="#000000" stroke="none">
<path d="M305 681 c-6 -6 -39 -11 -74 -13 -73 -3 -96 -22 -73 -58 6 -11 12
-51 12 -90 0 -78 -24 -131 -74 -163 -30 -20 -32 -34 -9 -81 13 -29 21 -34 39
-30 32 8 87 -12 114 -41 29 -30 38 -31 97 -4 33 15 57 19 83 15 29 -4 44 -1
64 15 32 25 33 43 4 89 -18 29 -22 50 -22 121 0 84 0 86 33 118 l34 33 -20 26
c-14 18 -33 29 -59 33 -21 3 -53 13 -71 22 -36 19 -64 22 -78 8z m95 -351 c0
-40 -4 -70 -10 -70 -6 0 -10 30 -10 70 0 40 4 70 10 70 6 0 10 -30 10 -70z"/>
</g>
</svg>
