<?xml version="1.0" standalone="no"?>
<!DOCTYPE svg PUBLIC "-//W3C//DTD SVG 20010904//EN"
 "http://www.w3.org/TR/2001/REC-SVG-20010904/DTD/svg10.dtd">
<svg version="1.0" xmlns="http://www.w3.org/2000/svg"
 width="77.000000pt" height="38.000000pt" viewBox="0 0 77.000000 38.000000"
 preserveAspectRatio="xMidYMid meet">

<g transform="translate(0.000000,38.000000) scale(0.100000,-0.100000)"
fill="#000000" stroke="none">
<path d="M289 354 c-12 -14 -32 -16 -146 -12 -127 5 -133 5 -133 -14 0 -30 28
-71 65 -96 25 -18 57 -26 131 -33 99 -10 144 -27 144 -54 0 -20 -27 -44 -58
-51 -47 -10 -49 -12 -55 -46 -2 -18 -4 -34 -2 -36 1 -1 92 -1 202 0 l201 3
-12 35 c-9 28 -18 36 -46 41 -47 10 -73 43 -64 83 12 58 53 85 163 107 47 9
61 16 70 36 25 54 30 53 -218 53 -199 0 -230 -2 -242 -16z"/>
</g>
</svg>
