<?xml version="1.0" standalone="no"?>
<!DOCTYPE svg PUBLIC "-//W3C//DTD SVG 20010904//EN"
 "http://www.w3.org/TR/2001/REC-SVG-20010904/DTD/svg10.dtd">
<svg version="1.0" xmlns="http://www.w3.org/2000/svg"
 width="61.000000pt" height="60.000000pt" viewBox="0 0 61.000000 60.000000"
 preserveAspectRatio="xMidYMid meet">

<g transform="translate(0.000000,60.000000) scale(0.100000,-0.100000)"
fill="#000000" stroke="none">
<path d="M150 490 c-105 -109 -125 -153 -105 -237 7 -29 20 -64 29 -78 26 -40
88 -95 114 -102 13 -3 45 -16 70 -29 60 -30 83 -30 148 2 58 28 136 110 166
173 19 39 24 144 9 183 -11 30 -99 118 -131 130 -42 17 -163 48 -189 48 -16 0
-49 -26 -111 -90z m215 13 c25 -12 35 -23 35 -40 0 -27 29 -45 52 -32 23 13
33 -25 18 -65 -9 -25 -8 -32 11 -52 20 -22 21 -25 6 -47 -8 -13 -17 -39 -19
-58 -2 -26 -14 -42 -56 -76 -77 -63 -90 -64 -167 -9 -59 43 -65 50 -65 82 0
21 -9 47 -21 62 l-20 26 22 17 c21 16 22 20 11 55 -14 45 0 83 24 63 19 -15
44 5 44 35 0 15 11 28 33 39 41 20 49 20 92 0z"/>
<path d="M300 400 c0 -23 -5 -31 -24 -36 -14 -3 -33 -15 -43 -26 -20 -23 -24
-23 47 -2 15 4 20 1 20 -14 0 -13 -9 -22 -27 -27 -30 -7 -53 -23 -53 -36 0 -4
15 -3 32 2 18 5 36 9 40 9 14 0 8 -33 -9 -52 -13 -15 -14 -18 -1 -18 8 0 22
-15 31 -32 l16 -33 0 39 c1 22 8 48 18 58 15 17 15 18 -1 18 -25 0 -16 34 11
38 11 2 29 12 39 23 19 21 13 23 -34 10 -28 -8 -32 -7 -32 10 0 11 9 21 24 25
14 3 33 15 43 26 20 23 25 23 -46 3 -14 -4 -20 1 -25 20 -9 35 -26 32 -26 -5z"/>
</g>
</svg>
