<?xml version="1.0" standalone="no"?>
<!DOCTYPE svg PUBLIC "-//W3C//DTD SVG 20010904//EN"
 "http://www.w3.org/TR/2001/REC-SVG-20010904/DTD/svg10.dtd">
<svg version="1.0" xmlns="http://www.w3.org/2000/svg"
 width="82.000000pt" height="66.000000pt" viewBox="0 0 82.000000 66.000000"
 preserveAspectRatio="xMidYMid meet">

<g transform="translate(0.000000,66.000000) scale(0.100000,-0.100000)"
fill="#000000" stroke="none">
<path d="M173 595 c-55 -24 -59 -47 -23 -131 l33 -74 25 25 c13 14 30 25 37
25 7 0 18 7 25 15 15 18 100 21 117 4 7 -7 33 -13 59 -15 29 -2 62 -13 86 -29
21 -14 42 -24 47 -21 4 3 13 24 20 48 7 24 17 53 22 66 11 28 0 52 -37 81 -25
20 -39 21 -203 21 -127 -1 -185 -5 -208 -15z"/>
<path d="M128 298 c-3 -29 -3 -93 1 -143 l6 -90 242 -1 242 -1 4 71 c3 39 8
87 12 107 4 23 3 39 -4 43 -6 4 -11 20 -11 37 l0 29 -244 0 -243 0 -5 -52z
m282 -33 c10 -12 10 -20 1 -38 -9 -17 -9 -30 -2 -51 15 -37 16 -36 -29 -36
-45 0 -44 -1 -29 36 7 21 7 34 -2 51 -14 26 2 53 31 53 10 0 23 -7 30 -15z"/>
</g>
</svg>
