<?xml version="1.0" standalone="no"?>
<!DOCTYPE svg PUBLIC "-//W3C//DTD SVG 20010904//EN"
 "http://www.w3.org/TR/2001/REC-SVG-20010904/DTD/svg10.dtd">
<svg version="1.0" xmlns="http://www.w3.org/2000/svg"
 width="48.000000pt" height="65.000000pt" viewBox="0 0 48.000000 65.000000"
 preserveAspectRatio="xMidYMid meet">

<g transform="translate(0.000000,65.000000) scale(0.100000,-0.100000)"
fill="#000000" stroke="none">
<path d="M85 643 c-11 -3 -32 -17 -48 -31 -23 -22 -27 -34 -27 -77 0 -44 6
-61 49 -125 27 -41 61 -86 75 -99 26 -24 26 -25 19 -138 -3 -62 -3 -113 1
-113 18 0 49 24 65 51 l18 30 36 -45 c34 -41 121 -95 133 -83 3 3 -2 20 -11
38 -11 20 -21 74 -26 139 -8 102 -27 178 -51 207 -17 21 -4 25 35 8 38 -15 75
-19 100 -10 18 7 -102 124 -153 150 -19 10 -53 32 -75 50 -67 54 -87 61 -140
48z"/>
</g>
</svg>
