<?xml version="1.0" standalone="no"?>
<!DOCTYPE svg PUBLIC "-//W3C//DTD SVG 20010904//EN"
 "http://www.w3.org/TR/2001/REC-SVG-20010904/DTD/svg10.dtd">
<svg version="1.0" xmlns="http://www.w3.org/2000/svg"
 width="55.000000pt" height="66.000000pt" viewBox="0 0 55.000000 66.000000"
 preserveAspectRatio="xMidYMid meet">

<g transform="translate(0.000000,66.000000) scale(0.100000,-0.100000)"
fill="#000000" stroke="none">
<path d="M391 558 c-17 -23 -31 -47 -31 -54 0 -6 -10 -23 -21 -38 -19 -24 -26
-27 -59 -21 -46 8 -60 -10 -60 -74 0 -32 -5 -44 -25 -57 -24 -16 -27 -16 -45
1 -19 17 -21 17 -39 1 -10 -9 -21 -36 -24 -60 -4 -24 -20 -70 -37 -102 -30
-58 -39 -108 -21 -119 9 -5 46 34 53 57 2 6 44 14 92 18 102 10 132 26 103 58
-36 39 -8 72 76 87 49 10 103 75 62 75 -26 0 -28 28 -5 61 13 17 24 50 26 75
2 24 6 64 8 89 5 58 -12 59 -53 3z"/>
</g>
</svg>
